<svg xmlns="http://www.w3.org/2000/svg" xmlns:svg="http://www.w3.org/2000/svg" xmlns:xlink="http://www.w3.org/1999/xlink" id="svg1377" width="48" height="48"><defs id="defs1379"><linearGradient id="aigrd1" x1="4.191" x2="47.32" y1="11.113" y2="56.052" gradientUnits="userSpaceOnUse"><stop id="stop6490" offset="0" style="stop-color:#d4d4d4"/><stop id="stop6492" offset=".398" style="stop-color:#e2e2e2"/><stop id="stop6494" offset="1" style="stop-color:#fff"/></linearGradient><linearGradient id="linearGradient7451" x1="4.191" x2="47.32" y1="11.113" y2="56.052" gradientUnits="userSpaceOnUse" xlink:href="#aigrd1"/><linearGradient id="linearGradient4126"><stop id="stop4128" offset="0" style="stop-color:#000;stop-opacity:1"/><stop id="stop4130" offset="1" style="stop-color:#000;stop-opacity:0"/></linearGradient><radialGradient id="radialGradient7449" cx="23.857" cy="40" r="17.143" fx="23.857" fy="40" gradientTransform="matrix(1.000000,0.000000,0.000000,0.500000,2.042141e-14,20.00000)" gradientUnits="userSpaceOnUse" xlink:href="#linearGradient4126"/><linearGradient id="linearGradient5250" x1="8.547" x2="30.851" y1="30.282" y2="48.302" gradientTransform="matrix(0.899009,0.000000,0.000000,0.934235,1.875108,1.193645)" gradientUnits="userSpaceOnUse" xlink:href="#linearGradient6525"/></defs><metadata id="metadata1382"/><g id="layer1"><g id="g7435" transform="matrix(1.566667,0.000000,0.000000,1.566667,-8.925566,-23.94764)"><path id="path6548" d="M 41.000000 40.000000 A 17.142857 8.5714283 0 1 1 6.7142868,40.000000 A 17.142857 8.5714283 0 1 1 41.000000 40.000000 z" transform="matrix(0.683333,0.000000,0.000000,0.683333,4.748287,11.10609)" style="opacity:.62025315;color:#000;fill:url(#radialGradient7449);fill-opacity:1;fill-rule:nonzero;stroke:none;stroke-width:1;stroke-linecap:butt;stroke-linejoin:miter;marker:none;marker-start:none;marker-mid:none;marker-end:none;stroke-miterlimit:10;stroke-dasharray:none;stroke-dashoffset:0;stroke-opacity:1;visibility:visible;display:block;overflow:visible"/><g style="fill-rule:nonzero;stroke:#000;stroke-miterlimit:4" id="Layer_x0020_2" transform="matrix(0.625000,0.000000,0.000000,0.625000,6.011173,14.00913)"><path id="path6480" d="M 48.000000,48.000000 L 0.0000000,48.000000 L 0.0000000,0.0000000 L 48.000000,0.0000000 L 48.000000,48.000000 z" style="fill:none;stroke:none"/></g><path style="fill:#c00;fill-rule:nonzero;stroke:#9f0000;stroke-width:.6382978;stroke-miterlimit:4;stroke-dasharray:none;stroke-opacity:1" id="path6485" d="M 33.282781,38.644744 L 22.407791,18.394765 C 22.095292,17.832266 21.532792,17.519767 20.907793,17.519767 C 20.282793,17.519767 19.720294,17.894765 19.407795,18.457265 L 8.7828048,38.707245 C 8.5328048,39.207244 8.5328048,39.894744 8.8453048,40.394743 C 9.1578038,40.894743 9.6578038,41.144742 10.282804,41.144742 L 31.782782,41.144742 C 32.407781,41.144742 32.970280,40.832243 33.220281,40.332243 C 33.532780,39.832243 33.532780,39.207244 33.282781,38.644744 z"/><g style="fill-rule:nonzero;stroke:#000;stroke-miterlimit:4" id="g6487" transform="matrix(0.625000,0.000000,0.000000,0.634254,5.907817,14.48395)"><linearGradient id="linearGradient6525" x1="4.191" x2="47.32" y1="11.113" y2="56.052" gradientUnits="userSpaceOnUse"><stop style="stop-color:#fff;stop-opacity:1" id="stop6529" offset="0"/><stop style="stop-color:#fff;stop-opacity:.34020618" id="stop6531" offset="1"/></linearGradient><path style="fill:url(#linearGradient7451);stroke:none" id="path6496" d="M 9.5000000,37.600000 C 9.2000000,38.100000 9.5000000,38.500000 10.000000,38.500000 L 38.200000,38.500000 C 38.700000,38.500000 39.000000,38.100000 38.700000,37.600000 L 24.400000,11.000000 C 24.100000,10.500000 23.700000,10.500000 23.500000,11.000000 L 9.5000000,37.600000 z"/></g><g style="fill-rule:nonzero;stroke:#000;stroke-miterlimit:4" id="g6498" transform="matrix(0.554873,0.000000,0.000000,0.554873,7.583837,16.53180)"><path style="stroke:none" id="path6500" d="M 23.900000,36.500000 C 22.600000,36.500000 21.600000,35.500000 21.600000,34.200000 C 21.600000,32.800000 22.500000,31.900000 23.900000,31.900000 C 25.300000,31.900000 26.100000,32.800000 26.200000,34.200000 C 26.200000,35.500000 25.300000,36.500000 23.900000,36.500000 L 23.900000,36.500000 z M 22.500000,30.600000 L 21.900000,19.100000 L 25.900000,19.100000 L 25.300000,30.600000 L 22.400000,30.600000 L 22.500000,30.600000 z"/></g><path style="opacity:.5;fill:none;fill-opacity:1;fill-rule:nonzero;stroke:url(#linearGradient5250);stroke-width:.63829792;stroke-miterlimit:4;stroke-dasharray:none;stroke-opacity:1" id="path1325" d="M 32.323106,38.183905 L 22.150271,19.265666 C 21.716980,18.450690 21.561698,18.189213 20.908406,18.189213 C 20.346525,18.189213 20.054127,18.570020 19.651305,19.339291 L 9.7489285,38.242296 C 9.1737649,39.303588 9.1128238,39.580228 9.3937644,40.047345 C 9.6747034,40.514462 10.032797,40.489020 11.356441,40.519491 L 30.974593,40.519491 C 32.206825,40.534726 32.483988,40.440837 32.708740,39.973720 C 32.989681,39.506602 32.867799,39.136000 32.323106,38.183905 z"/></g></g></svg>