<svg xmlns="http://www.w3.org/2000/svg" xmlns:svg="http://www.w3.org/2000/svg" xmlns:xlink="http://www.w3.org/1999/xlink" id="svg11300" width="48" height="48" version="1.0"><metadata id="metadata83"/><defs id="defs"><radialGradient id="R1" cx="605.714" cy="486.648" r="117.143" fx="605.714" fy="486.648" gradientTransform="matrix(-2.774389,0,0,1.969706,112.7623,-872.8854)" gradientUnits="userSpaceOnUse" xlink:href="#G1"/><linearGradient id="G1"><stop id="s1" offset="0" style="stop-color:#000"/><stop id="s2" offset="1" style="stop-color:#000;stop-opacity:0"/></linearGradient><radialGradient id="R2" cx="605.714" cy="486.648" r="117.143" fx="605.714" fy="486.648" gradientTransform="matrix(2.774389,0,0,1.969706,-1891.633,-872.8854)" gradientUnits="userSpaceOnUse" xlink:href="#G1"/><linearGradient id="G2"><stop id="s3" offset="0" style="stop-color:#000;stop-opacity:0"/><stop id="s4" offset=".5" style="stop-color:#000"/><stop id="s5" offset="1" style="stop-color:#000;stop-opacity:0"/></linearGradient><linearGradient id="G3" x1="302.857" x2="302.857" y1="366.648" y2="609.505" gradientTransform="matrix(2.774389,0,0,1.969706,-1892.179,-872.8854)" gradientUnits="userSpaceOnUse" xlink:href="#G2"/><linearGradient id="G4"><stop id="s6" offset="0" style="stop-color:#000"/><stop id="s7" offset="1" style="stop-color:#c9c9c9"/></linearGradient><linearGradient id="G5"><stop id="s8" offset="0" style="stop-color:#e7e2b8"/><stop id="s9" offset="1" style="stop-color:#e7e2b8;stop-opacity:0"/></linearGradient><linearGradient id="G6"><stop id="s10" offset="0" style="stop-color:#c1c1c1"/><stop id="s11" offset="1" style="stop-color:#acacac"/></linearGradient><linearGradient id="G7"><stop id="s12" offset="0" style="stop-color:#ffd1d1"/><stop id="s13" offset=".5" style="stop-color:#ff1d1d"/><stop id="s14" offset="1" style="stop-color:#6f0000"/></linearGradient><linearGradient id="G8"><stop id="s15" offset="0" style="stop-color:#a3a4a0"/><stop id="s16" offset="1" style="stop-color:#888a85"/></linearGradient><linearGradient id="G9"><stop id="s17" offset="0" style="stop-color:#939393"/><stop id="s18" offset="1" style="stop-color:#424242"/></linearGradient><linearGradient id="G10"><stop id="s19" offset="0" style="stop-color:#000"/><stop id="s20" offset="1" style="stop-color:#000;stop-opacity:0"/></linearGradient><linearGradient id="G11"><stop id="s21" offset="0" style="stop-color:#dfdfdf"/><stop id="s22" offset="1" style="stop-color:#fff"/></linearGradient><linearGradient id="G12" x1="21.043" x2="14.284" y1="42.833" y2="6.833" gradientTransform="matrix(1.137871,0,0,1,-2.660884,0)" gradientUnits="userSpaceOnUse" xlink:href="#G11"/><linearGradient id="G13" x1="26.612" x2="26.228" y1="28.083" y2="42.833" gradientUnits="userSpaceOnUse" xlink:href="#G9"/><linearGradient id="G14" x1="6" x2="40.984" y1="7.563" y2="7.563" gradientUnits="userSpaceOnUse" xlink:href="#G8"/><linearGradient id="G15" x1="48.906" x2="50.988" y1="17.376" y2="22.251" gradientTransform="translate(-5.669292,0)" gradientUnits="userSpaceOnUse" xlink:href="#G7"/><linearGradient id="G16" x1="46" x2="47.688" y1="19.813" y2="22.625" gradientTransform="translate(-5.669292,0)" gradientUnits="userSpaceOnUse" xlink:href="#G6"/><radialGradient id="radialGradient2990" cx="29.053" cy="27.641" r="3.241" fx="29.053" fy="27.641" gradientTransform="matrix(2.923565,0,0,2.029717,-61.55532,-27.88417)" gradientUnits="userSpaceOnUse" xlink:href="#G5"/><linearGradient id="G17" x1="25.719" x2="25.515" y1="31.047" y2="30.703" gradientTransform="translate(-5.825542,0.125)" gradientUnits="userSpaceOnUse" xlink:href="#G4"/><radialGradient id="R3" cx="23.563" cy="40.438" r="19.563" fx="23.563" fy="40.438" gradientTransform="matrix(1,0,0,0.348243,0,26.35543)" gradientUnits="userSpaceOnUse" xlink:href="#G10"/></defs><g id="layer1"><g id="g6707" transform="matrix(2.417561e-2,0,0,2.086758e-2,45.12765,40.1536)"><rect id="rect6709" width="1339.633" height="478.357" x="-1559.252" y="-150.697" style="opacity:.4;fill:url(#G3)"/><path id="p1" d="M-219.61876,-150.68038C-219.61876,-150.68038-219.61876,327.65041-219.61876,327.65041C-76.744594,328.55086 125.78146,220.48075 125.78138,88.454235C125.78138,-43.572302-33.655436,-150.68036-219.61876,-150.68038z" style="opacity:.4;fill:url(#R2)"/><path id="p2" d="M-1559.2523,-150.68038C-1559.2523,-150.68038-1559.2523,327.65041-1559.2523,327.65041C-1702.1265,328.55086-1904.6525,220.48075-1904.6525,88.454235C-1904.6525,-43.572302-1745.2157,-150.68036-1559.2523,-150.68038z" style="opacity:.4;fill:url(#R1)"/></g><path id="p3" d="M7.1638699,4.5063726L39.813122,4.5063726C40.575699,4.5063726 41.189615,5.0388241 41.189615,5.7002099C41.189615,5.7002099 43.590945,39.868907 43.590945,39.868907C43.590945,39.868907 43.603403,42.216529 43.603403,42.216529C43.603403,42.877915 42.989488,43.410366 42.226911,43.410366L4.750081,43.410366C3.9875042,43.410366 3.3735887,42.877915 3.3735887,42.216529L3.3624173,40.049613L5.7873775,5.7002099C5.7873775,5.0388241 6.4012931,4.5063726 7.1638699,4.5063726z" style="fill:url(#G12);stroke:url(#G13)"/><path id="p4" d="M43.125,40.4375A19.5625,6.8125 0 1 1 4,40.4375A19.5625,6.8125 0 1 1 43.125,40.4375z" transform="matrix(0.616613,0,0,0.440367,10.61425,13.94266)" style="opacity:.31578944;fill:url(#R3)"/><rect id="rect2851" width="39.048" height="3.071" x="3.977" y="39.868" rx=".679" ry=".679" style="fill:#a4a4a4"/><path id="p5" d="M3.9267507,40.442796C3.9267507,40.442796 4.0776125,39.912466 4.6307727,39.868272L42.195375,39.868272C42.949684,39.868272 43,40.619573 43,40.619573C43,40.619573 43.02357,39 41.7161,39L5.3042159,39C4.2984702,39.088388 3.9267507,39.779883 3.9267507,40.442796z" style="fill:#fff"/><path id="p6" d="M6.25,5.7343749L6,10.125C6,10.125 6.3125,9 7,9L40.125,9C40.828125,8.9843749 40.859375,9.3124999 40.984375,9.8281249C40.984375,9.8281249 40.734375,5.9531249 40.734375,5.9531249C40.703125,5.4062499 40.515625,5 39.953125,5L7.0625,5C6.609375,5 6.296875,5.3437499 6.25,5.7343749z" style="fill:url(#G14)"/><path id="p7" d="M7.8126474,5.5404503L38.944983,5.5404503C39.66702,5.5404503 40.2483,5.3883462 40.2483,6.014572C40.2483,6.014572 42.521973,39.023077 42.521973,39.023077C42.521973,39.023077 42.622156,41.732033 42.622156,41.732033C42.622156,42.358259 42.48282,42.376269 41.760782,42.376269L4.8620444,42.376269C4.4493662,42.376269 4.4426114,42.269871 4.4426114,41.864615L4.4320338,39.194177L6.7280807,6.045822C6.7280807,5.4195962 7.09061,5.5404503 7.8126474,5.5404503z" style="opacity:.43859648;fill:none;stroke:#fff"/><g id="g2950"><rect id="rect2899" width="2" height="5" x="8.5" y="2.5" rx="1" ry="1" style="fill:#fce94f;stroke:#886f00"/><rect id="rect2901" width="2" height="5" x="12.5" y="2.5" rx="1" ry="1" style="fill:#fce94f;stroke:#886f00"/><rect id="rect2903" width="2" height="5" x="16.5" y="2.5" rx="1" ry="1" style="fill:#fce94f;stroke:#886f00"/><rect id="rect2905" width="2" height="5" x="20.5" y="2.5" rx="1" ry="1" style="fill:#fce94f;stroke:#886f00"/><rect id="rect2907" width="2" height="5" x="24.5" y="2.5" rx="1" ry="1" style="fill:#fce94f;stroke:#886f00"/><rect id="rect2909" width="2" height="5" x="28.5" y="2.5" rx="1" ry="1" style="fill:#fce94f;stroke:#886f00"/><rect id="rect2911" width="2" height="5" x="32.5" y="2.5" rx="1" ry="1" style="fill:#fce94f;stroke:#886f00"/><rect id="rect2913" width="2" height="5" x="36.5" y="2.5" rx="1" ry="1" style="fill:#fce94f;stroke:#886f00"/></g><g id="g2941"><rect id="rect2927" width="29" height="1" x="9" y="12" style="opacity:.2807;fill:#000"/><rect id="rect2929" width="29" height="1" x="9" y="14.982" style="opacity:.2807;fill:#000"/><rect id="rect2931" width="13" height="1" x="9" y="18.004" style="opacity:.2807;fill:#000"/><rect id="rect2933" width="29" height="1" x="9" y="22.986" style="opacity:.2807;fill:#000"/><rect id="rect2935" width="29" height="1" x="9" y="26.008" style="opacity:.2807;fill:#000"/><rect id="rect2937" width="29" height="1" x="9" y="29.03" style="opacity:.2807;fill:#000"/><rect id="rect2939" width="8" height="1" x="9" y="32.052" style="opacity:.2807;fill:#000"/></g><path id="path2960" d="M17.34116,32.5L22.96616,26.875L43.059909,17.125C46.31,15.875 48.247409,20.5 45.372409,22.125L25.34116,31.5L17.34116,32.5z" style="fill:#cb9022;stroke:#5c410c"/><path id="p8" d="M38.330708,20C38.330708,20 39.768208,20.09375 40.330708,21.34375C40.910201,22.631511 40.330708,24 40.330708,24L45.361958,21.53125C45.361958,21.53125 46.81399,20.649883 46.018208,18.6875C45.233296,16.751923 43.330708,17.53125 43.330708,17.53125L38.330708,20z" style="fill:url(#G15)"/><path id="p9" d="M38.330708,20C38.330708,20 39.768208,20.09375 40.330708,21.34375C40.910201,22.631511 40.330708,24 40.330708,24L42.330708,23C42.330708,23 43.15774,21.681133 42.549458,20.3125C41.924458,18.90625 40.330708,19 40.330708,19L38.330708,20z" style="fill:url(#G16)"/><path id="p10" d="M18.768208,31.78125L23.268208,27.28125C24.768208,28.09375 25.549458,29.4375 25.143208,31L18.768208,31.78125z" style="fill:url(#radialGradient2990)"/><path id="p11" d="M20.111958,30.375L18.486958,31.96875L20.830708,31.65625C21.049458,30.9375 20.643208,30.59375 20.111958,30.375z" style="fill:url(#G17)"/><path id="p12" d="M23.268208,27.25L24.830708,28.5L40.218048,21.18133C39.773616,20.325286 38.976281,20.096733 38.314669,20.019068L23.268208,27.25z" style="fill:#fff;fill-opacity:.36363639"/><path id="p13" d="M25.143208,31.0625L25.330708,30.3125L40.561798,23.1829C40.561798,23.1829 40.451638,23.796527 40.345919,23.93225L25.143208,31.0625z" style="fill:#000;fill-opacity:.36363639"/></g></svg>