<svg xmlns="http://www.w3.org/2000/svg" xmlns:svg="http://www.w3.org/2000/svg" id="svg2397" width="744.094" height="1052.362"><metadata id="metadata2402"/><g id="layer1"><g id="g3313" transform="translate(6.7806328e-2,-2.2034442e-7)"><g id="g3244" transform="matrix(0.7360667,0,0,0.7360667,-183.97633,81.195675)"><rect style="opacity:1;fill:#000;fill-opacity:1;stroke:none;stroke-width:8;stroke-linecap:round;stroke-linejoin:bevel;stroke-miterlimit:4;stroke-dasharray:none;stroke-dashoffset:0;stroke-opacity:1" id="rect3213" width="159.608" height="172.726" x="336.888" y="479.726" rx="27.938" ry="28.486"/><g id="g3237" transform="translate(3.0274966,-2.3117434)"><path style="opacity:1;fill:#fff;fill-opacity:1;stroke:none;stroke-width:9.93909931;stroke-linecap:round;stroke-linejoin:round;stroke-miterlimit:4;stroke-dasharray:none;stroke-dashoffset:0;stroke-opacity:1" id="path3181" d="M 177.46479,257.99597 A 26.760563,25.352112 0 1 1 123.94366,257.99597 A 26.760563,25.352112 0 1 1 177.46479,257.99597 z" transform="matrix(0.7473684,0,0,0.7888889,276.83395,313.66796)"/><path id="path3207" d="M 390.18854,563.68476 L 440.18854,563.68476" style="fill:none;fill-rule:evenodd;stroke:#fff;stroke-width:10.86857986;stroke-linecap:butt;stroke-linejoin:miter;stroke-miterlimit:4;stroke-dasharray:none;stroke-opacity:1"/><path id="path3209" d="M 389.46552,522.03683 L 389.46552,619.60356 L 445.90322,619.60356" style="fill:none;fill-rule:evenodd;stroke:#fff;stroke-width:10.86857986;stroke-linecap:butt;stroke-linejoin:bevel;stroke-miterlimit:4;stroke-dasharray:none;stroke-opacity:1"/><path style="opacity:1;fill:#000;fill-opacity:1;stroke:#fff;stroke-width:16.68668938;stroke-linecap:round;stroke-linejoin:round;stroke-miterlimit:4;stroke-dasharray:none;stroke-dashoffset:0;stroke-opacity:1" id="path3197" d="M 177.46479,257.99597 A 26.760563,25.352112 0 1 1 123.94366,257.99597 A 26.760563,25.352112 0 1 1 177.46479,257.99597 z" transform="matrix(0.6047758,0,0,0.6383745,346.72147,454.90551)"/><path id="path3195" d="M 177.46479,257.99597 A 26.760563,25.352112 0 1 1 123.94366,257.99597 A 26.760563,25.352112 0 1 1 177.46479,257.99597 z" transform="matrix(0.7473684,0,0,0.7888889,325.23217,360.1546)" style="opacity:1;fill:#fecb00;fill-opacity:1;stroke:none;stroke-width:9.93909931;stroke-linecap:round;stroke-linejoin:round;stroke-miterlimit:4;stroke-dasharray:none;stroke-dashoffset:0;stroke-opacity:1"/></g></g><text id="text3217" x="190.865" y="552.79" xml:space="preserve" style="font-size:153.43165588px;font-style:normal;font-variant:normal;font-weight:400;font-stretch:normal;text-align:start;line-height:125%;writing-mode:lr-tb;text-anchor:start;fill:#000;fill-opacity:1;stroke:none;stroke-width:1px;stroke-linecap:butt;stroke-linejoin:miter;stroke-opacity:1;font-family:Arial Rounded MT Bold;-inkscape-font-specification:'Arial Rounded MT Bold,'"><tspan id="tspan3221" x="190.865" y="552.79">Axiom</tspan></text><text id="text3225" x="642.845" y="457.863" xml:space="preserve" style="font-size:15.06841087px;font-style:normal;font-variant:normal;font-weight:400;font-stretch:normal;text-align:start;line-height:125%;writing-mode:lr-tb;text-anchor:start;fill:#000;fill-opacity:1;stroke:none;stroke-width:1px;stroke-linecap:butt;stroke-linejoin:miter;stroke-opacity:1;font-family:Arial Rounded MT Bold;-inkscape-font-specification:'Arial Rounded MT Bold,'"><tspan id="tspan3227" x="642.845" y="457.863">TM</tspan></text></g><rect style="opacity:1;fill:none;fill-opacity:1;stroke:none;stroke-width:7.99999952;stroke-linecap:round;stroke-linejoin:bevel;stroke-miterlimit:4;stroke-dasharray:none;stroke-dashoffset:0;stroke-opacity:1" id="rect3253" width="629.487" height="152.477" x="49.196" y="421.636" rx="0" ry="0"/></g></svg>